<svg width="178" height="182" viewBox="0 0 178 182" fill="none" xmlns="http://www.w3.org/2000/svg">
<path d="M102 12C105.667 15.6667 116.9 21.9 132.5 17.5C148.1 13.1 159.333 21.3333 163 26C164.833 27.3333 169.7 29 174.5 25" stroke="black"/>
<path d="M89 37.5C137.978 37.5 177.5 69.8264 177.5 109.5C177.5 149.174 137.978 181.5 89 181.5C40.0221 181.5 0.5 149.174 0.5 109.5C0.5 69.8264 40.0221 37.5 89 37.5Z" stroke="black"/>
<path d="M89 73.5C113.526 73.5 135.706 77.7455 151.736 84.5898C159.752 88.0123 166.207 92.075 170.65 96.5605C175.092 101.044 177.5 105.923 177.5 111C177.5 116.077 175.092 120.956 170.65 125.439C166.207 129.925 159.752 133.988 151.736 137.41C135.706 144.254 113.526 148.5 89 148.5C64.4742 148.5 42.2938 144.254 26.2637 137.41C18.2479 133.988 11.7932 129.925 7.34961 125.439C2.90805 120.956 0.5 116.077 0.5 111C0.5 105.923 2.90805 101.044 7.34961 96.5605C11.7932 92.075 18.2479 88.0123 26.2637 84.5898C42.2938 77.7455 64.4742 73.5 89 73.5Z" stroke="black"/>
<path d="M89 38V182" stroke="black"/>
<path d="M0 111L178 111" stroke="black"/>
<path d="M89 181.5C85.0543 181.5 81.146 179.669 77.4847 176.122C73.8213 172.573 70.4295 167.328 67.5394 160.569C61.759 147.05 58.5 128.68 58.5 109.5C58.5 90.32 61.7591 71.95 67.5394 58.4313C70.4295 51.6723 73.8213 46.4267 77.4847 42.8779C81.146 39.3311 85.0543 37.5 89 37.5" stroke="black"/>
<path d="M89 181.5C92.9457 181.5 96.854 179.669 100.515 176.122C104.179 172.573 107.57 167.328 110.461 160.569C116.241 147.05 119.5 128.68 119.5 109.5C119.5 90.32 116.241 71.95 110.461 58.4313C107.57 51.6723 104.179 46.4267 100.515 42.8779C96.854 39.3311 92.9457 37.5 89 37.5" stroke="black"/>
<path d="M89 111.5L63 147" stroke="black"/>
<path d="M89 111.5L115 147" stroke="black"/>
<circle cx="127" cy="18" r="3" fill="black"/>
<circle cx="115" cy="70" r="3" fill="black"/>
<circle cx="97" cy="148" r="3" fill="black"/>
<path d="M127 18L97.5 148" stroke="black"/>
<path d="M48.9588 150.273H50.5568L53.3352 157.057H53.4375L56.2159 150.273H57.8139V159H56.5611V152.685H56.4801L53.9062 158.987H52.8665L50.2926 152.68H50.2116V159H48.9588V150.273ZM60.5763 159.066C60.2695 159.066 60.0018 158.996 59.7731 158.855C59.5444 158.714 59.3668 158.518 59.2404 158.265C59.114 158.012 59.0508 157.717 59.0508 157.379C59.0508 157.039 59.114 156.742 59.2404 156.488C59.3668 156.234 59.5444 156.036 59.7731 155.896C60.0018 155.755 60.2695 155.685 60.5763 155.685C60.8832 155.685 61.1509 155.755 61.3796 155.896C61.6083 156.036 61.7859 156.234 61.9123 156.488C62.0387 156.742 62.1019 157.039 62.1019 157.379C62.1019 157.717 62.0387 158.012 61.9123 158.265C61.7859 158.518 61.6083 158.714 61.3796 158.855C61.1509 158.996 60.8832 159.066 60.5763 159.066ZM60.5785 158.531C60.7773 158.531 60.9421 158.479 61.0728 158.374C61.2035 158.268 61.3001 158.129 61.3626 157.954C61.4265 157.779 61.4585 157.587 61.4585 157.376C61.4585 157.168 61.4265 156.976 61.3626 156.801C61.3001 156.625 61.2035 156.484 61.0728 156.377C60.9421 156.271 60.7773 156.217 60.5785 156.217C60.3782 156.217 60.212 156.271 60.0799 156.377C59.9492 156.484 59.8519 156.625 59.788 156.801C59.7255 156.976 59.6942 157.168 59.6942 157.376C59.6942 157.587 59.7255 157.779 59.788 157.954C59.8519 158.129 59.9492 158.268 60.0799 158.374C60.212 158.479 60.3782 158.531 60.5785 158.531Z" fill="black"/>
<path d="M123.168 68.1705H124.463L125.375 69.3594L125.805 69.8878L127.259 71.7841H125.912L124.94 70.5185L124.608 70.0582L123.168 68.1705ZM127.54 66.6364C127.54 67.5682 127.369 68.3693 127.028 69.0398C126.688 69.7074 126.22 70.2216 125.626 70.5824C125.036 70.9403 124.364 71.1193 123.611 71.1193C122.855 71.1193 122.18 70.9403 121.587 70.5824C120.996 70.2216 120.53 69.706 120.189 69.0355C119.848 68.3651 119.678 67.5653 119.678 66.6364C119.678 65.7045 119.848 64.9048 120.189 64.2372C120.53 63.5668 120.996 63.0526 121.587 62.6946C122.18 62.3338 122.855 62.1534 123.611 62.1534C124.364 62.1534 125.036 62.3338 125.626 62.6946C126.22 63.0526 126.688 63.5668 127.028 64.2372C127.369 64.9048 127.54 65.7045 127.54 66.6364ZM126.236 66.6364C126.236 65.9261 126.121 65.3281 125.891 64.8423C125.663 64.3537 125.351 63.9844 124.953 63.7344C124.558 63.4815 124.111 63.3551 123.611 63.3551C123.108 63.3551 122.659 63.4815 122.264 63.7344C121.869 63.9844 121.557 64.3537 121.327 64.8423C121.099 65.3281 120.986 65.9261 120.986 66.6364C120.986 67.3466 121.099 67.946 121.327 68.4347C121.557 68.9205 121.869 69.2898 122.264 69.5426C122.659 69.7926 123.108 69.9176 123.611 69.9176C124.111 69.9176 124.558 69.7926 124.953 69.5426C125.351 69.2898 125.663 68.9205 125.891 68.4347C126.121 67.946 126.236 67.3466 126.236 66.6364ZM130.029 71.0661C129.723 71.0661 129.455 70.9957 129.226 70.8551C128.998 70.7145 128.82 70.5178 128.694 70.2649C128.567 70.0121 128.504 69.7166 128.504 69.3786C128.504 69.0391 128.567 68.7422 128.694 68.4879C128.82 68.2337 128.998 68.0362 129.226 67.8956C129.455 67.755 129.723 67.6847 130.029 67.6847C130.336 67.6847 130.604 67.755 130.833 67.8956C131.061 68.0362 131.239 68.2337 131.365 68.4879C131.492 68.7422 131.555 69.0391 131.555 69.3786C131.555 69.7166 131.492 70.0121 131.365 70.2649C131.239 70.5178 131.061 70.7145 130.833 70.8551C130.604 70.9957 130.336 71.0661 130.029 71.0661ZM130.032 70.5312C130.23 70.5312 130.395 70.4787 130.526 70.3736C130.657 70.2685 130.753 70.1286 130.816 69.9538C130.88 69.7791 130.912 69.5866 130.912 69.3764C130.912 69.1676 130.88 68.9759 130.816 68.8011C130.753 68.625 130.657 68.4837 130.526 68.3771C130.395 68.2706 130.23 68.2173 130.032 68.2173C129.831 68.2173 129.665 68.2706 129.533 68.3771C129.402 68.4837 129.305 68.625 129.241 68.8011C129.179 68.9759 129.147 69.1676 129.147 69.3764C129.147 69.5866 129.179 69.7791 129.241 69.9538C129.305 70.1286 129.402 70.2685 129.533 70.3736C129.665 70.4787 129.831 70.5312 130.032 70.5312Z" fill="black"/>
<path d="M115.959 150.273H117.557L120.335 157.057H120.438L123.216 150.273H124.814V159H123.561V152.685H123.48L120.906 158.987H119.866L117.293 152.68H117.212V159H115.959V150.273Z" fill="black"/>
<path d="M86.5398 103.636C86.5398 104.568 86.3693 105.369 86.0284 106.04C85.6875 106.707 85.2202 107.222 84.6264 107.582C84.0355 107.94 83.3636 108.119 82.6108 108.119C81.8551 108.119 81.1804 107.94 80.5866 107.582C79.9957 107.222 79.5298 106.706 79.1889 106.036C78.848 105.365 78.6776 104.565 78.6776 103.636C78.6776 102.705 78.848 101.905 79.1889 101.237C79.5298 100.567 79.9957 100.053 80.5866 99.6946C81.1804 99.3338 81.8551 99.1534 82.6108 99.1534C83.3636 99.1534 84.0355 99.3338 84.6264 99.6946C85.2202 100.053 85.6875 100.567 86.0284 101.237C86.3693 101.905 86.5398 102.705 86.5398 103.636ZM85.2358 103.636C85.2358 102.926 85.1207 102.328 84.8906 101.842C84.6634 101.354 84.3509 100.984 83.9531 100.734C83.5582 100.482 83.1108 100.355 82.6108 100.355C82.108 100.355 81.6591 100.482 81.2642 100.734C80.8693 100.984 80.5568 101.354 80.3267 101.842C80.0994 102.328 79.9858 102.926 79.9858 103.636C79.9858 104.347 80.0994 104.946 80.3267 105.435C80.5568 105.92 80.8693 106.29 81.2642 106.543C81.6591 106.793 82.108 106.918 82.6108 106.918C83.1108 106.918 83.5582 106.793 83.9531 106.543C84.3509 106.29 84.6634 105.92 84.8906 105.435C85.1207 104.946 85.2358 104.347 85.2358 103.636Z" fill="black"/>
<path d="M131.168 9.17045H132.463L133.375 10.3594L133.805 10.8878L135.259 12.7841H133.912L132.94 11.5185L132.608 11.0582L131.168 9.17045ZM135.54 7.63636C135.54 8.56818 135.369 9.36932 135.028 10.0398C134.688 10.7074 134.22 11.2216 133.626 11.5824C133.036 11.9403 132.364 12.1193 131.611 12.1193C130.855 12.1193 130.18 11.9403 129.587 11.5824C128.996 11.2216 128.53 10.706 128.189 10.0355C127.848 9.36506 127.678 8.56534 127.678 7.63636C127.678 6.70455 127.848 5.90483 128.189 5.23722C128.53 4.56676 128.996 4.05256 129.587 3.6946C130.18 3.33381 130.855 3.15341 131.611 3.15341C132.364 3.15341 133.036 3.33381 133.626 3.6946C134.22 4.05256 134.688 4.56676 135.028 5.23722C135.369 5.90483 135.54 6.70455 135.54 7.63636ZM134.236 7.63636C134.236 6.92614 134.121 6.32812 133.891 5.84233C133.663 5.35369 133.351 4.98438 132.953 4.73438C132.558 4.48153 132.111 4.35511 131.611 4.35511C131.108 4.35511 130.659 4.48153 130.264 4.73438C129.869 4.98438 129.557 5.35369 129.327 5.84233C129.099 6.32812 128.986 6.92614 128.986 7.63636C128.986 8.34659 129.099 8.94602 129.327 9.43466C129.557 9.92045 129.869 10.2898 130.264 10.5426C130.659 10.7926 131.108 10.9176 131.611 10.9176C132.111 10.9176 132.558 10.7926 132.953 10.5426C133.351 10.2898 133.663 9.92045 133.891 9.43466C134.121 8.94602 134.236 8.34659 134.236 7.63636Z" fill="black"/>
<path d="M129.959 37V28.2727H131.276V32.0653H135.626V28.2727H136.947V37H135.626V33.1946H131.276V37H129.959Z" fill="black"/>
<path d="M96.1307 156.114V160H94.8565V153.455H96.0795V154.52H96.1605C96.3111 154.173 96.5469 153.895 96.8679 153.685C97.1918 153.474 97.5994 153.369 98.0909 153.369C98.5369 153.369 98.9276 153.463 99.2628 153.651C99.598 153.835 99.858 154.111 100.043 154.477C100.227 154.844 100.32 155.297 100.32 155.837V160H99.0455V155.99C99.0455 155.516 98.9219 155.145 98.6747 154.878C98.4276 154.608 98.0881 154.473 97.6562 154.473C97.3608 154.473 97.098 154.537 96.8679 154.665C96.6406 154.793 96.4602 154.98 96.3267 155.227C96.196 155.472 96.1307 155.767 96.1307 156.114Z" fill="black"/>
<path d="M105.5 113.5L106.113 119.241L110.778 115.839L105.5 113.5ZM109.564 138.756L109.319 139.192L110.192 139.681L110.436 139.244L110 139L109.564 138.756ZM108.152 117.137L107.725 117.398C111.01 122.76 113.833 131.132 109.564 138.756L110 139L110.436 139.244C114.973 131.143 111.93 122.346 108.578 116.875L108.152 117.137Z" fill="#3166FF"/>
<path d="M77.3359 128.143L76.9655 127.807L76.2937 128.548L76.6641 128.884L77 128.513L77.3359 128.143ZM101 127L95.3412 128.145L99.1622 132.473L101 127ZM77 128.513L76.6641 128.884C80.3446 132.221 89.2056 136.553 97.9147 130.387L97.6258 129.979L97.3369 129.571C89.1772 135.348 80.8472 131.327 77.3359 128.143L77 128.513Z" fill="#FF6B31"/>
<path d="M77.9588 143V134.273H79.2756V141.866H83.2301V143H77.9588Z" fill="#FF6B31"/>
<path d="M117.959 132V123.273H121.155C121.774 123.273 122.287 123.375 122.693 123.58C123.099 123.781 123.403 124.055 123.605 124.402C123.807 124.746 123.908 125.134 123.908 125.565C123.908 125.929 123.841 126.236 123.707 126.486C123.574 126.733 123.395 126.932 123.17 127.082C122.949 127.23 122.705 127.338 122.438 127.406V127.491C122.727 127.506 123.01 127.599 123.286 127.773C123.564 127.943 123.794 128.186 123.976 128.501C124.158 128.817 124.249 129.2 124.249 129.652C124.249 130.098 124.143 130.499 123.933 130.854C123.726 131.206 123.405 131.486 122.97 131.693C122.536 131.898 121.98 132 121.304 132H117.959ZM119.276 130.871H121.176C121.807 130.871 122.259 130.749 122.531 130.504C122.804 130.26 122.94 129.955 122.94 129.588C122.94 129.312 122.871 129.06 122.732 128.83C122.592 128.599 122.393 128.416 122.135 128.28C121.879 128.143 121.575 128.075 121.223 128.075H119.276V130.871ZM119.276 127.048H121.04C121.335 127.048 121.601 126.991 121.837 126.878C122.075 126.764 122.264 126.605 122.403 126.401C122.545 126.193 122.616 125.949 122.616 125.668C122.616 125.307 122.49 125.004 122.237 124.76C121.984 124.516 121.597 124.393 121.074 124.393H119.276V127.048Z" fill="#3166FF"/>
<path d="M103.98 103.659L104.516 103.79L104.094 105.512L103.558 105.381L103.98 103.659ZM102.278 104.883L105.457 105.661L105.309 106.268L102.13 105.489L102.278 104.883ZM102.763 102.902L105.942 103.681L105.794 104.285L102.615 103.507L102.763 102.902ZM106.537 101.53C106.464 101.828 106.332 102.071 106.141 102.26C105.95 102.449 105.717 102.574 105.441 102.637C105.165 102.699 104.863 102.691 104.535 102.61C104.205 102.529 103.932 102.397 103.715 102.214C103.498 102.031 103.349 101.811 103.267 101.556C103.184 101.3 103.18 101.023 103.253 100.725C103.326 100.427 103.458 100.184 103.649 99.9954C103.84 99.8067 104.074 99.6812 104.351 99.6189C104.628 99.5566 104.931 99.5659 105.261 99.6466C105.589 99.7271 105.861 99.8588 106.077 100.042C106.292 100.225 106.441 100.444 106.523 100.7C106.606 100.955 106.61 101.232 106.537 101.53ZM106.018 101.401C106.065 101.207 106.054 101.035 105.983 100.883C105.912 100.731 105.799 100.604 105.644 100.502C105.489 100.398 105.31 100.321 105.106 100.271C104.903 100.221 104.709 100.207 104.524 100.227C104.338 100.246 104.178 100.306 104.044 100.408C103.909 100.51 103.818 100.657 103.771 100.85C103.723 101.045 103.735 101.219 103.807 101.372C103.88 101.525 103.994 101.653 104.15 101.757C104.304 101.859 104.483 101.935 104.686 101.985C104.89 102.035 105.085 102.05 105.269 102.031C105.454 102.01 105.613 101.949 105.746 101.847C105.88 101.744 105.971 101.595 106.018 101.401ZM108.197 99.6337L103.826 98.5631L103.974 97.9588L104.49 98.085L104.502 98.0333C104.445 97.9812 104.381 97.9107 104.311 97.8218C104.24 97.7329 104.187 97.6205 104.152 97.4846C104.115 97.3483 104.121 97.1815 104.169 96.9842C104.232 96.7276 104.353 96.5145 104.532 96.3448C104.711 96.1752 104.937 96.063 105.209 96.0083C105.482 95.9522 105.79 95.9663 106.133 96.0504C106.477 96.1346 106.757 96.264 106.975 96.4386C107.191 96.613 107.341 96.8164 107.424 97.0489C107.506 97.281 107.516 97.5254 107.453 97.782C107.406 97.9752 107.335 98.1252 107.24 98.2321C107.145 98.3377 107.046 98.4143 106.942 98.462C106.838 98.5097 106.748 98.5438 106.671 98.5645L106.662 98.6018L108.349 99.0149L108.197 99.6337ZM105.564 98.346C105.788 98.4008 105.992 98.4163 106.176 98.3927C106.36 98.3691 106.515 98.3076 106.64 98.2081C106.764 98.1083 106.848 97.9694 106.891 97.7914C106.937 97.6066 106.925 97.44 106.858 97.2919C106.789 97.1434 106.677 97.0166 106.523 96.9116C106.369 96.8052 106.186 96.7259 105.974 96.6739C105.764 96.6225 105.568 96.6081 105.386 96.6307C105.203 96.6519 105.049 96.7134 104.921 96.8153C104.794 96.9158 104.708 97.0592 104.662 97.2455C104.619 97.4248 104.628 97.5879 104.69 97.7347C104.752 97.8801 104.858 98.0049 105.008 98.1089C105.158 98.2129 105.344 98.292 105.564 98.346ZM107.557 93.7735L105.396 92.1559L105.527 91.622L108.379 93.7313L108.267 94.1907L104.769 94.7159L104.898 94.1881L107.557 93.7735ZM104.856 94.3599L108.035 95.1386L107.886 95.7449L104.707 94.9663L104.856 94.3599ZM108.616 92.7669L105.437 91.9883L105.584 91.386L108.763 92.1647L108.616 92.7669ZM109.262 90.4322C109.213 90.6336 109.131 90.8066 109.017 90.9512C108.901 91.0954 108.76 91.1975 108.593 91.2576C108.426 91.3162 108.239 91.32 108.031 91.269C107.851 91.2251 107.712 91.1544 107.613 91.057C107.514 90.9597 107.445 90.8441 107.406 90.7102C107.367 90.5764 107.348 90.4328 107.349 90.2795C107.35 90.1262 107.36 89.9722 107.379 89.8174C107.404 89.6216 107.424 89.4627 107.439 89.3406C107.453 89.2183 107.45 89.1261 107.43 89.0642C107.41 89.0023 107.363 88.9622 107.288 88.944L107.274 88.9404C107.093 88.8961 106.941 88.9129 106.816 88.9906C106.692 89.067 106.606 89.2052 106.557 89.4053C106.506 89.6136 106.512 89.7891 106.575 89.9318C106.637 90.0728 106.718 90.1797 106.819 90.2526L106.544 90.8017C106.367 90.6854 106.236 90.5465 106.15 90.385C106.063 90.2217 106.013 90.0466 106.002 89.8596C105.99 89.6722 106.007 89.4827 106.054 89.2909C106.085 89.164 106.133 89.0332 106.198 88.8985C106.262 88.7621 106.349 88.6415 106.458 88.5366C106.567 88.4303 106.705 88.355 106.871 88.3108C107.035 88.2663 107.233 88.2724 107.465 88.3292L109.576 88.8463L109.428 89.4506L108.993 89.3441L108.987 89.3689C109.058 89.4286 109.122 89.5078 109.179 89.6068C109.237 89.7057 109.276 89.8242 109.296 89.9623C109.316 90.1003 109.305 90.257 109.262 90.4322ZM108.798 90.176C108.84 90.0049 108.842 89.8504 108.805 89.7124C108.767 89.5731 108.702 89.4583 108.608 89.3682C108.514 89.2763 108.404 89.215 108.278 89.1842L107.868 89.0838C107.885 89.1113 107.895 89.1592 107.899 89.2274C107.902 89.2938 107.9 89.3688 107.894 89.4522C107.887 89.5352 107.88 89.6161 107.872 89.6946C107.863 89.7729 107.856 89.8384 107.85 89.8911C107.836 90.0149 107.835 90.1308 107.846 90.2389C107.858 90.3457 107.891 90.437 107.944 90.5129C107.996 90.587 108.077 90.6376 108.187 90.6647C108.341 90.7022 108.47 90.674 108.577 90.5801C108.682 90.4859 108.756 90.3512 108.798 90.176ZM109.717 88.2725L109.18 88.1433L109.208 88.0295C109.23 87.9412 109.229 87.8628 109.206 87.7943C109.183 87.7242 109.13 87.6586 109.048 87.5977C108.967 87.5367 108.848 87.4763 108.693 87.4164C108.537 87.3562 108.338 87.2913 108.096 87.2219L106.703 86.8213L107.246 84.6028L110.425 85.3814L110.276 85.9878L107.631 85.3399L107.377 86.3788L108.445 86.6931C108.704 86.7697 108.927 86.8527 109.112 86.9421C109.299 87.0301 109.448 87.1288 109.56 87.2382C109.671 87.3472 109.743 87.4703 109.779 87.6076C109.812 87.7446 109.808 87.9 109.765 88.0738L109.717 88.2725ZM108.655 83.5796L108.881 82.6566C108.976 82.2675 109.146 81.9918 109.391 81.8294C109.635 81.667 109.91 81.6231 110.215 81.6978C110.414 81.7465 110.581 81.8372 110.716 81.9699C110.852 82.1025 110.944 82.2706 110.992 82.474C111.039 82.677 111.031 82.9082 110.967 83.1676L110.627 84.5562L107.448 83.7775L107.597 83.1712L110.242 83.8191L110.433 83.0368C110.477 82.8588 110.466 82.7012 110.402 82.5641C110.336 82.4266 110.231 82.3401 110.086 82.3046C109.933 82.2671 109.794 82.2938 109.669 82.3846C109.543 82.4751 109.459 82.6094 109.415 82.7874L109.189 83.7104L108.655 83.5796Z" fill="black"/>
</svg>
