<svg width="267" height="179" viewBox="0 0 267 179" fill="none" xmlns="http://www.w3.org/2000/svg">
<path d="M99.5398 84.6364C99.5398 85.5682 99.3693 86.3693 99.0284 87.0398C98.6875 87.7074 98.2202 88.2216 97.6264 88.5824C97.0355 88.9403 96.3636 89.1193 95.6108 89.1193C94.8551 89.1193 94.1804 88.9403 93.5866 88.5824C92.9957 88.2216 92.5298 87.706 92.1889 87.0355C91.848 86.3651 91.6776 85.5653 91.6776 84.6364C91.6776 83.7045 91.848 82.9048 92.1889 82.2372C92.5298 81.5668 92.9957 81.0526 93.5866 80.6946C94.1804 80.3338 94.8551 80.1534 95.6108 80.1534C96.3636 80.1534 97.0355 80.3338 97.6264 80.6946C98.2202 81.0526 98.6875 81.5668 99.0284 82.2372C99.3693 82.9048 99.5398 83.7045 99.5398 84.6364ZM98.2358 84.6364C98.2358 83.9261 98.1207 83.3281 97.8906 82.8423C97.6634 82.3537 97.3509 81.9844 96.9531 81.7344C96.5582 81.4815 96.1108 81.3551 95.6108 81.3551C95.108 81.3551 94.6591 81.4815 94.2642 81.7344C93.8693 81.9844 93.5568 82.3537 93.3267 82.8423C93.0994 83.3281 92.9858 83.9261 92.9858 84.6364C92.9858 85.3466 93.0994 85.946 93.3267 86.4347C93.5568 86.9205 93.8693 87.2898 94.2642 87.5426C94.6591 87.7926 95.108 87.9176 95.6108 87.9176C96.1108 87.9176 96.5582 87.7926 96.9531 87.5426C97.3509 87.2898 97.6634 86.9205 97.8906 86.4347C98.1207 85.946 98.2358 85.3466 98.2358 84.6364Z" fill="black"/>
<path d="M89 19C74.8333 22.3333 33 41.5 33 91.5" stroke="#FF6B31"/>
<path d="M88.751 162C74.751 158.69 33 141.153 33 91.5" stroke="#FF6B31"/>
<path d="M88.751 162C71.5 148.5 62 128 62 92.5" stroke="#FF6B31"/>
<path d="M88.751 19C73 33 62 57 62 92.5" stroke="#FF6B31"/>
<path d="M0 92L178 92" stroke="black"/>
<path d="M89 18.5C137.978 18.5 177.5 50.8264 177.5 90.5C177.5 130.174 137.978 162.5 89 162.5C40.0221 162.5 0.5 130.174 0.5 90.5C0.5 50.8264 40.0221 18.5 89 18.5Z" stroke="black"/>
<path d="M88.4961 19C74.3328 26.3589 46.1049 51.2118 46.5002 91.7526C46.8955 132.293 74.662 156.143 88.4958 163" stroke="black" stroke-linecap="square" stroke-dasharray="6 6"/>
<path d="M89 54.5C113.526 54.5 135.706 58.7455 151.736 65.5898C159.752 69.0123 166.207 73.075 170.65 77.5605C175.092 82.0441 177.5 86.923 177.5 92C177.5 97.077 175.092 101.956 170.65 106.439C166.207 110.925 159.752 114.988 151.736 118.41C135.706 125.254 113.526 129.5 89 129.5C64.4742 129.5 42.2938 125.254 26.2637 118.41C18.2479 114.988 11.7932 110.925 7.34961 106.439C2.90805 101.956 0.5 97.077 0.5 92C0.5 86.923 2.90805 82.0441 7.34961 77.5605C11.7932 73.075 18.2479 69.0123 26.2637 65.5898C42.2938 58.7455 64.4742 54.5 89 54.5Z" stroke="black"/>
<circle cx="55" cy="75" r="2" fill="#3166FF"/>
<circle cx="235" cy="55" r="2" fill="#3166FF"/>
<path d="M88.5 18.5V163" stroke="black" stroke-linecap="square"/>
<path d="M60.1364 70L57.2045 66.0881H56.2756V70H54.9588V61.2727H56.2756V64.9588H56.706L60.0043 61.2727H61.6108L58.1207 65.1804L61.7429 70H60.1364Z" fill="#3166FF"/>
<path d="M240.136 50L237.205 46.0881H236.276V50H234.959V41.2727H236.276V44.9588H236.706L240.004 41.2727H241.611L238.121 45.1804L241.743 50H240.136Z" fill="#3166FF"/>
<path d="M213.136 58L210.205 54.0881H209.276V58H207.959V49.2727H209.276V52.9588H209.706L213.004 49.2727H214.611L211.121 53.1804L214.743 58H213.136ZM217.079 53.6364V58H216.419V54.2969H216.393L215.349 54.9787V54.348L216.438 53.6364H217.079Z" fill="#FF6B31"/>
<path d="M236.136 104L233.205 100.088H232.276V104H230.959V95.2727H232.276V98.9588H232.706L236.004 95.2727H237.611L234.121 99.1804L237.743 104H236.136ZM238.424 104V103.523L239.9 101.993C240.058 101.827 240.188 101.681 240.29 101.556C240.394 101.43 240.471 101.31 240.522 101.196C240.574 101.082 240.599 100.962 240.599 100.834C240.599 100.689 240.565 100.564 240.497 100.459C240.429 100.352 240.336 100.271 240.218 100.214C240.1 100.156 239.967 100.126 239.819 100.126C239.663 100.126 239.527 100.158 239.41 100.222C239.294 100.286 239.204 100.376 239.142 100.493C239.079 100.609 239.048 100.746 239.048 100.902H238.419C238.419 100.636 238.48 100.404 238.603 100.205C238.725 100.006 238.892 99.8523 239.105 99.7429C239.319 99.6321 239.561 99.5767 239.832 99.5767C240.106 99.5767 240.348 99.6314 240.556 99.7408C240.767 99.8487 240.931 99.9964 241.049 100.184C241.167 100.37 241.225 100.58 241.225 100.815C241.225 100.977 241.195 101.135 241.134 101.29C241.074 101.445 240.97 101.617 240.821 101.808C240.672 101.996 240.464 102.226 240.199 102.496L239.331 103.403V103.435H241.296V104H238.424Z" fill="#FF6B31"/>
<path d="M235 92.5V55H221" stroke="#3166FF" stroke-linecap="square" stroke-dasharray="6 6"/>
<path d="M87.9588 15V6.27273H91.0696C91.7486 6.27273 92.3111 6.39631 92.7571 6.64347C93.2031 6.89062 93.5369 7.22869 93.7585 7.65767C93.9801 8.08381 94.0909 8.56392 94.0909 9.09801C94.0909 9.63494 93.9787 10.1179 93.7543 10.5469C93.5327 10.973 93.1974 11.3111 92.7486 11.5611C92.3026 11.8082 91.7415 11.9318 91.0653 11.9318H88.9261V10.8153H90.946C91.375 10.8153 91.723 10.7415 91.9901 10.5938C92.2571 10.4432 92.4531 10.2386 92.5781 9.98011C92.7031 9.72159 92.7656 9.42756 92.7656 9.09801C92.7656 8.76847 92.7031 8.47585 92.5781 8.22017C92.4531 7.96449 92.2557 7.7642 91.9858 7.61932C91.7188 7.47443 91.3665 7.40199 90.929 7.40199H89.2756V15H87.9588Z" fill="black"/>
<path d="M87.9588 176V167.273H91.0696C91.7486 167.273 92.3111 167.396 92.7571 167.643C93.2031 167.891 93.5369 168.229 93.7585 168.658C93.9801 169.084 94.0909 169.564 94.0909 170.098C94.0909 170.635 93.9787 171.118 93.7543 171.547C93.5327 171.973 93.1974 172.311 92.7486 172.561C92.3026 172.808 91.7415 172.932 91.0653 172.932H88.9261V171.815H90.946C91.375 171.815 91.723 171.741 91.9901 171.594C92.2571 171.443 92.4531 171.239 92.5781 170.98C92.7031 170.722 92.7656 170.428 92.7656 170.098C92.7656 169.768 92.7031 169.476 92.5781 169.22C92.4531 168.964 92.2557 168.764 91.9858 168.619C91.7188 168.474 91.3665 168.402 90.929 168.402H89.2756V176H87.9588ZM96.7511 171.636V176H96.0906V172.297H96.065L95.021 172.979V172.348L96.1097 171.636H96.7511Z" fill="black"/>
<circle cx="19" cy="46" r="2" fill="black"/>
<path d="M12.4006 34.2727V35.4062H8.27557V43H6.95881V34.2727H12.4006ZM13.1026 45.4545V36.4545H14.3469V37.5156H14.4535C14.5273 37.3793 14.6339 37.2216 14.7731 37.0426C14.9123 36.8636 15.1055 36.7074 15.3526 36.5739C15.5998 36.4375 15.9265 36.3693 16.3327 36.3693C16.8612 36.3693 17.3327 36.5028 17.7475 36.7699C18.1623 37.0369 18.4876 37.4219 18.7234 37.9247C18.962 38.4276 19.0813 39.0327 19.0813 39.7401C19.0813 40.4474 18.9634 41.054 18.7276 41.5597C18.4918 42.0625 18.168 42.4503 17.756 42.723C17.3441 42.9929 16.8739 43.1278 16.3455 43.1278C15.9478 43.1278 15.6225 43.0611 15.3697 42.9276C15.1197 42.794 14.9237 42.6378 14.7816 42.4588C14.6396 42.2798 14.5302 42.1207 14.4535 41.9815H14.3768V45.4545H13.1026ZM14.3512 39.7273C14.3512 40.1875 14.418 40.5909 14.5515 40.9375C14.685 41.2841 14.8782 41.5554 15.131 41.7514C15.3839 41.9446 15.6935 42.0412 16.06 42.0412C16.4407 42.0412 16.7589 41.9403 17.0146 41.7386C17.2702 41.5341 17.4634 41.2571 17.5941 40.9077C17.7276 40.5582 17.7944 40.1648 17.7944 39.7273C17.7944 39.2955 17.729 38.9077 17.5984 38.5639C17.4705 38.2202 17.2773 37.9489 17.0188 37.75C16.7631 37.5511 16.4435 37.4517 16.06 37.4517C15.6907 37.4517 15.3782 37.5469 15.1225 37.7372C14.8697 37.9276 14.6779 38.1932 14.5472 38.5341C14.4165 38.875 14.3512 39.2727 14.3512 39.7273Z" fill="black"/>
<path d="M221 15.5C225.098 15.5 229.053 17.5743 232.703 21.4336C236.354 25.2941 239.665 30.9073 242.456 37.8848C248.037 51.837 251.5 71.1463 251.5 92.5C251.5 113.854 248.037 133.163 242.456 147.115C239.665 154.093 236.354 159.706 232.703 163.566C229.053 167.426 225.098 169.5 221 169.5C216.902 169.5 212.947 167.426 209.297 163.566C205.646 159.706 202.335 154.093 199.544 147.115C193.963 133.163 190.5 113.854 190.5 92.5C190.5 71.1463 193.963 51.837 199.544 37.8848C202.335 30.9073 205.646 25.2941 209.297 21.4336C212.947 17.5743 216.902 15.5 221 15.5Z" stroke="black"/>
<path d="M220.5 169.5V170H221.5V169.5H221H220.5ZM221 15.5L218.113 20.5H223.887L221 15.5ZM221 169.5H221.5V20H221H220.5V169.5H221Z" fill="black"/>
<path d="M190.5 92H190V93H190.5V92.5V92ZM258.5 92.5L253.5 89.6132V95.3868L258.5 92.5ZM190.5 92.5V93H254V92.5V92H190.5V92.5Z" fill="black"/>
<path d="M220.408 5.45455L221.43 8.00284L223.31 5.45455H224.703L222.116 8.72727L223.629 12H222.236L221.17 9.55398L219.291 12H217.893L220.476 8.72727L219.01 5.45455H220.408Z" fill="black"/>
<path d="M260.716 97.4545C260.523 97.4545 260.351 97.4389 260.2 97.4077C260.05 97.3793 259.937 97.348 259.864 97.3139L260.349 96.2699C260.574 96.3324 260.774 96.3565 260.95 96.3423C261.129 96.3281 261.297 96.2543 261.453 96.1207C261.609 95.9872 261.768 95.777 261.93 95.4901L262.169 95.0597L260.886 88.4545H262.199L263.009 93.5469H263.077L265.582 88.4545H267.001L263.077 95.8651C262.892 96.2173 262.682 96.5099 262.446 96.7429C262.213 96.9787 261.952 97.1563 261.662 97.2756C261.375 97.3949 261.06 97.4545 260.716 97.4545Z" fill="black"/>
<circle cx="221" cy="55" r="2" fill="#FF6B31"/>
<circle cx="235" cy="93" r="2" fill="#FF6B31"/>
</svg>
